<svg width="448" height="85" viewBox="0 0 448 85" fill="none" xmlns="http://www.w3.org/2000/svg">
<path d="M29.88 18.13L10.44 63.85C10.02 64.99 9.36 65.89 8.46 66.55C7.62 67.15 6.69 67.45 5.67 67.45C4.05 67.45 2.85 67 2.07 66.1C1.29 65.2 0.9 64.09 0.9 62.77C0.9 62.23 0.99 61.66 1.17 61.06L23.58 7.24C24.06 6.04 24.78 5.11 25.74 4.45C26.76 3.79 27.84 3.52 28.98 3.63999C30.06 3.63999 31.05 3.97 31.95 4.63C32.91 5.23 33.6 6.1 34.02 7.24L56.16 59.98C56.46 60.76 56.61 61.48 56.61 62.14C56.61 63.76 56.07 65.05 54.99 66.01C53.97 66.97 52.83 67.45 51.57 67.45C50.49 67.45 49.5 67.12 48.6 66.46C47.76 65.8 47.1 64.9 46.62 63.76L27.27 18.67L29.88 18.13ZM13.23 52.87L18.18 42.52H42.48L44.19 52.87H13.23ZM102.75 0.399999C104.31 0.399999 105.6 0.909998 106.62 1.93C107.64 2.95 108.15 4.27 108.15 5.89V61.51C108.15 63.07 107.64 64.39 106.62 65.47C105.6 66.49 104.31 67 102.75 67C101.19 67 99.9005 66.49 98.8805 65.47C97.8605 64.39 97.3505 63.07 97.3505 61.51V57.1L99.3305 57.91C99.3305 58.69 98.9105 59.65 98.0705 60.79C97.2305 61.87 96.0905 62.95 94.6505 64.03C93.2105 65.11 91.5005 66.04 89.5205 66.82C87.6005 67.54 85.5005 67.9 83.2205 67.9C79.0805 67.9 75.3305 66.85 71.9705 64.75C68.6105 62.59 65.9405 59.65 63.9605 55.93C62.0405 52.15 61.0805 47.83 61.0805 42.97C61.0805 38.05 62.0405 33.73 63.9605 30.01C65.9405 26.23 68.5805 23.29 71.8805 21.19C75.1805 19.03 78.8405 17.95 82.8605 17.95C85.4405 17.95 87.8105 18.34 89.9705 19.12C92.1305 19.9 93.9905 20.89 95.5505 22.09C97.1705 23.29 98.4005 24.52 99.2405 25.78C100.14 26.98 100.59 28 100.59 28.84L97.3505 30.01V5.89C97.3505 4.33 97.8605 3.04 98.8805 2.01999C99.9005 0.939998 101.19 0.399999 102.75 0.399999ZM84.5705 58C87.2105 58 89.5205 57.34 91.5005 56.02C93.4805 54.7 95.0105 52.9 96.0905 50.62C97.2305 48.34 97.8005 45.79 97.8005 42.97C97.8005 40.09 97.2305 37.51 96.0905 35.23C95.0105 32.95 93.4805 31.15 91.5005 29.83C89.5205 28.51 87.2105 27.85 84.5705 27.85C81.9905 27.85 79.7105 28.51 77.7305 29.83C75.7505 31.15 74.1905 32.95 73.0505 35.23C71.9705 37.51 71.4305 40.09 71.4305 42.97C71.4305 45.79 71.9705 48.34 73.0505 50.62C74.1905 52.9 75.7505 54.7 77.7305 56.02C79.7105 57.34 81.9905 58 84.5705 58ZM122.004 18.85C123.144 18.85 124.194 19.15 125.154 19.75C126.114 20.29 126.834 21.13 127.314 22.27L140.544 52.51L138.564 53.41L152.064 22.36C153.084 19.96 154.674 18.82 156.834 18.94C158.334 18.94 159.534 19.42 160.434 20.38C161.394 21.28 161.874 22.42 161.874 23.8C161.874 24.22 161.784 24.67 161.604 25.15C161.484 25.63 161.334 26.08 161.154 26.5L144.324 63.58C143.364 65.74 141.834 66.88 139.734 67C138.594 67.18 137.484 66.97 136.404 66.37C135.384 65.77 134.604 64.84 134.064 63.58L117.324 26.5C117.204 26.2 117.054 25.81 116.874 25.33C116.754 24.85 116.694 24.28 116.694 23.62C116.694 22.54 117.174 21.49 118.134 20.47C119.094 19.39 120.384 18.85 122.004 18.85ZM209.625 17.95C211.185 17.95 212.475 18.46 213.495 19.48C214.515 20.5 215.025 21.82 215.025 23.44V61.51C215.025 63.07 214.515 64.39 213.495 65.47C212.475 66.49 211.185 67 209.625 67C208.065 67 206.775 66.49 205.755 65.47C204.735 64.39 204.225 63.07 204.225 61.51V57.1L206.205 57.91C206.205 58.69 205.785 59.65 204.945 60.79C204.105 61.87 202.965 62.95 201.525 64.03C200.085 65.11 198.375 66.04 196.395 66.82C194.475 67.54 192.375 67.9 190.095 67.9C185.955 67.9 182.205 66.85 178.845 64.75C175.485 62.59 172.815 59.65 170.835 55.93C168.915 52.15 167.955 47.83 167.955 42.97C167.955 38.05 168.915 33.73 170.835 30.01C172.815 26.23 175.455 23.29 178.755 21.19C182.055 19.03 185.715 17.95 189.735 17.95C192.315 17.95 194.685 18.34 196.845 19.12C199.005 19.9 200.865 20.89 202.425 22.09C204.045 23.29 205.275 24.52 206.115 25.78C207.015 26.98 207.465 28 207.465 28.84L204.225 30.01V23.44C204.225 21.88 204.735 20.59 205.755 19.57C206.775 18.49 208.065 17.95 209.625 17.95ZM191.445 58C194.085 58 196.395 57.34 198.375 56.02C200.355 54.7 201.885 52.9 202.965 50.62C204.105 48.34 204.675 45.79 204.675 42.97C204.675 40.09 204.105 37.51 202.965 35.23C201.885 32.95 200.355 31.15 198.375 29.83C196.395 28.51 194.085 27.85 191.445 27.85C188.865 27.85 186.585 28.51 184.605 29.83C182.625 31.15 181.065 32.95 179.925 35.23C178.845 37.51 178.305 40.09 178.305 42.97C178.305 45.79 178.845 48.34 179.925 50.62C181.065 52.9 182.625 54.7 184.605 56.02C186.585 57.34 188.865 58 191.445 58ZM252.459 17.95C256.899 17.95 260.259 18.88 262.539 20.74C264.879 22.6 266.469 25.09 267.309 28.21C268.209 31.27 268.659 34.69 268.659 38.47V61.51C268.659 63.07 268.149 64.39 267.129 65.47C266.109 66.49 264.819 67 263.259 67C261.699 67 260.409 66.49 259.389 65.47C258.369 64.39 257.859 63.07 257.859 61.51V38.47C257.859 36.49 257.589 34.72 257.049 33.16C256.569 31.54 255.669 30.25 254.349 29.29C253.029 28.33 251.139 27.85 248.679 27.85C246.279 27.85 244.239 28.33 242.559 29.29C240.939 30.25 239.679 31.54 238.779 33.16C237.939 34.72 237.519 36.49 237.519 38.47V61.51C237.519 63.07 237.009 64.39 235.989 65.47C234.969 66.49 233.679 67 232.119 67C230.559 67 229.269 66.49 228.249 65.47C227.229 64.39 226.719 63.07 226.719 61.51V24.34C226.719 22.78 227.229 21.49 228.249 20.47C229.269 19.39 230.559 18.85 232.119 18.85C233.679 18.85 234.969 19.39 235.989 20.47C237.009 21.49 237.519 22.78 237.519 24.34V28.21L236.169 27.94C236.709 26.92 237.489 25.84 238.509 24.7C239.529 23.5 240.729 22.39 242.109 21.37C243.489 20.35 245.049 19.54 246.789 18.94C248.529 18.28 250.419 17.95 252.459 17.95ZM301.752 17.95C305.172 17.95 308.142 18.31 310.662 19.03C313.242 19.75 315.222 20.77 316.602 22.09C318.042 23.35 318.762 24.88 318.762 26.68C318.762 27.88 318.402 29.02 317.682 30.1C316.962 31.12 315.912 31.63 314.532 31.63C313.572 31.63 312.762 31.51 312.102 31.27C311.502 30.97 310.962 30.61 310.482 30.19C310.002 29.77 309.432 29.38 308.772 29.02C308.172 28.66 307.242 28.39 305.982 28.21C304.782 27.97 303.882 27.85 303.282 27.85C300.222 27.85 297.612 28.51 295.452 29.83C293.352 31.15 291.732 32.95 290.592 35.23C289.452 37.45 288.882 40.03 288.882 42.97C288.882 45.85 289.452 48.43 290.592 50.71C291.792 52.93 293.412 54.7 295.452 56.02C297.552 57.34 299.952 58 302.652 58C304.152 58 305.442 57.91 306.522 57.73C307.602 57.55 308.502 57.28 309.222 56.92C310.062 56.44 310.812 55.93 311.472 55.39C312.132 54.85 313.122 54.58 314.442 54.58C316.002 54.58 317.202 55.09 318.042 56.11C318.882 57.07 319.302 58.27 319.302 59.71C319.302 61.21 318.462 62.59 316.782 63.85C315.102 65.05 312.882 66.04 310.122 66.82C307.422 67.54 304.482 67.9 301.302 67.9C296.562 67.9 292.452 66.82 288.972 64.66C285.492 62.44 282.792 59.44 280.872 55.66C279.012 51.88 278.082 47.65 278.082 42.97C278.082 38.05 279.072 33.73 281.052 30.01C283.092 26.23 285.882 23.29 289.422 21.19C293.022 19.03 297.132 17.95 301.752 17.95ZM337.26 61.51C337.26 63.07 336.75 64.39 335.73 65.47C334.71 66.49 333.42 67 331.86 67C330.3 67 329.01 66.49 327.99 65.47C326.97 64.39 326.46 63.07 326.46 61.51V24.34C326.46 22.78 326.97 21.49 327.99 20.47C329.01 19.39 330.3 18.85 331.86 18.85C333.42 18.85 334.71 19.39 335.73 20.47C336.75 21.49 337.26 22.78 337.26 24.34V61.51ZM331.77 13C329.73 13 328.29 12.67 327.45 12.01C326.61 11.35 326.19 10.18 326.19 8.5V6.79C326.19 5.05 326.64 3.88 327.54 3.28C328.5 2.62 329.94 2.29 331.86 2.29C333.96 2.29 335.43 2.62 336.27 3.28C337.11 3.94 337.53 5.11 337.53 6.79V8.5C337.53 10.24 337.08 11.44 336.18 12.1C335.28 12.7 333.81 13 331.77 13ZM374.1 17.95C378.54 17.95 381.9 18.88 384.18 20.74C386.52 22.6 388.11 25.09 388.95 28.21C389.85 31.27 390.3 34.69 390.3 38.47V61.51C390.3 63.07 389.79 64.39 388.77 65.47C387.75 66.49 386.46 67 384.9 67C383.34 67 382.05 66.49 381.03 65.47C380.01 64.39 379.5 63.07 379.5 61.51V38.47C379.5 36.49 379.23 34.72 378.69 33.16C378.21 31.54 377.31 30.25 375.99 29.29C374.67 28.33 372.78 27.85 370.32 27.85C367.92 27.85 365.88 28.33 364.2 29.29C362.58 30.25 361.32 31.54 360.42 33.16C359.58 34.72 359.16 36.49 359.16 38.47V61.51C359.16 63.07 358.65 64.39 357.63 65.47C356.61 66.49 355.32 67 353.76 67C352.2 67 350.91 66.49 349.89 65.47C348.87 64.39 348.36 63.07 348.36 61.51V24.34C348.36 22.78 348.87 21.49 349.89 20.47C350.91 19.39 352.2 18.85 353.76 18.85C355.32 18.85 356.61 19.39 357.63 20.47C358.65 21.49 359.16 22.78 359.16 24.34V28.21L357.81 27.94C358.35 26.92 359.13 25.84 360.15 24.7C361.17 23.5 362.37 22.39 363.75 21.37C365.13 20.35 366.69 19.54 368.43 18.94C370.17 18.28 372.06 17.95 374.1 17.95ZM421.953 17.95C424.473 17.95 426.783 18.34 428.883 19.12C430.983 19.9 432.783 20.89 434.283 22.09C435.843 23.29 437.043 24.52 437.883 25.78C438.783 26.98 439.233 28 439.233 28.84L436.893 30.01V23.44C436.893 21.88 437.403 20.59 438.423 19.57C439.443 18.49 440.733 17.95 442.293 17.95C443.853 17.95 445.143 18.46 446.163 19.48C447.183 20.5 447.693 21.82 447.693 23.44V63.49C447.693 68.71 446.553 72.88 444.273 76C442.053 79.18 439.113 81.46 435.453 82.84C431.793 84.28 427.863 85 423.663 85C422.463 85 420.903 84.85 418.983 84.55C417.063 84.25 415.233 83.89 413.493 83.47C411.753 83.05 410.433 82.66 409.533 82.3C407.733 81.52 406.473 80.53 405.753 79.33C405.093 78.19 404.973 76.96 405.393 75.64C405.933 73.9 406.803 72.7 408.003 72.04C409.203 71.44 410.463 71.38 411.783 71.86C412.383 72.04 413.373 72.4 414.753 72.94C416.133 73.48 417.633 73.96 419.253 74.38C420.933 74.86 422.403 75.1 423.663 75.1C428.163 75.1 431.493 74.2 433.653 72.4C435.813 70.6 436.893 68.11 436.893 64.93V57.1L437.973 57.91C437.973 58.69 437.553 59.65 436.713 60.79C435.933 61.87 434.823 62.95 433.383 64.03C432.003 65.11 430.353 66.04 428.433 66.82C426.513 67.54 424.473 67.9 422.313 67.9C418.053 67.9 414.213 66.85 410.793 64.75C407.373 62.59 404.673 59.65 402.693 55.93C400.713 52.15 399.723 47.83 399.723 42.97C399.723 38.05 400.713 33.73 402.693 30.01C404.673 26.23 407.343 23.29 410.703 21.19C414.063 19.03 417.813 17.95 421.953 17.95ZM423.663 27.85C420.963 27.85 418.593 28.51 416.553 29.83C414.513 31.15 412.923 32.95 411.783 35.23C410.643 37.51 410.073 40.09 410.073 42.97C410.073 45.79 410.643 48.34 411.783 50.62C412.923 52.9 414.513 54.7 416.553 56.02C418.593 57.34 420.963 58 423.663 58C426.423 58 428.823 57.34 430.863 56.02C432.903 54.7 434.493 52.9 435.633 50.62C436.773 48.34 437.343 45.79 437.343 42.97C437.343 40.09 436.773 37.51 435.633 35.23C434.493 32.95 432.903 31.15 430.863 29.83C428.823 28.51 426.423 27.85 423.663 27.85Z" fill="#030625"/>
</svg>
