<svg width="863" height="85" viewBox="0 0 863 85" fill="none" xmlns="http://www.w3.org/2000/svg">
<path fill-rule="evenodd" clip-rule="evenodd" d="M139.081 65.068C140.161 63.988 140.701 62.668 140.701 61.108V5.48805C140.701 3.92804 140.191 2.63804 139.171 1.61804C138.211 0.538045 136.951 -0.00195312 135.391 -0.00195312C133.831 -0.00195312 132.511 0.538045 131.431 1.61804C130.411 2.63804 129.901 3.92804 129.901 5.48805V61.108C129.901 62.668 130.411 63.988 131.431 65.068C132.451 66.088 133.711 66.598 135.211 66.598C136.771 66.598 138.061 66.088 139.081 65.068ZM5.66902 3.50804C6.50902 3.50804 7.37902 3.74804 8.27902 4.22805C9.23902 4.64804 9.95902 5.21804 10.439 5.93805L30.0331 36.0953L50.219 5.93805C51.359 4.31804 52.829 3.50804 54.629 3.50804C56.069 3.50804 57.359 4.01805 58.499 5.03805C59.639 6.05804 60.209 7.37804 60.209 8.99804V61.108C60.209 62.668 59.699 63.988 58.679 65.068C57.659 66.088 56.309 66.598 54.629 66.598C52.949 66.598 51.569 66.088 50.489 65.068C49.469 63.988 48.959 62.668 48.959 61.108V24.8791L34.109 47.518C33.569 48.178 32.879 48.748 32.039 49.228C31.259 49.708 30.449 49.918 29.609 49.858C28.829 49.918 28.019 49.708 27.179 49.228C26.399 48.748 25.739 48.178 25.199 47.518L10.349 24.0379V29.7684C9.26952 28.6116 7.53003 28.0283 5.61604 28.6949C4.63533 29.0369 3.44659 28.9933 3.25604 28.6089C3.19534 28.4864 3.03844 28.3475 2.90767 28.3003C1.84102 27.9139 0.856241 26.6906 0.923491 25.835C0.944238 25.5698 0.914068 25.0857 0.856256 24.7595C0.756864 24.1996 1.0277 23.2342 1.32537 23.0867C1.44692 23.0265 1.68624 22.7472 2.7237 21.456C4.49254 19.2534 5.19033 18.9119 7.91292 18.9159C8.3622 18.9169 9.21283 18.4215 9.77097 17.8348C12.015 15.4751 10.4505 11.7197 7.15183 11.5477C4.95428 11.4333 2.64181 14.2768 3.50911 16.0268C3.6468 16.3047 3.57616 17.4207 3.37962 18.0731C3.22897 18.5734 1.52943 20.8737 0.96459 21.3425C0.785312 21.4912 0.512576 21.8098 0.358045 22.0506C0.260147 22.2034 0.139532 22.3393 -0.000976562 22.4568V19.4659C1.00084 19.1316 1.79494 18.22 1.80139 17.0091C1.80858 15.669 0.991942 14.816 -0.000976562 14.4964V12.8918C0.987922 13.2925 2.15523 12.6404 2.49014 11.254C2.80964 9.93102 1.25986 8.93287 -0.000976562 9.32022V8.99804C-0.000976562 7.49805 0.539023 6.20805 1.61902 5.12805C2.75902 4.04804 4.10902 3.50804 5.66902 3.50804ZM-0.000976562 28.1354V32.7542C0.308236 32.8153 0.6313 32.9634 0.953789 33.2046L1.64978 33.7252L1.64746 34.4258C1.64378 35.6573 0.954991 36.5038 -0.000976562 36.5471V61.108C-0.000976562 62.668 0.479024 63.988 1.43902 65.068C2.39902 66.088 3.62902 66.598 5.12902 66.598C6.68902 66.598 7.94902 66.088 8.90902 65.068C9.86902 63.988 10.349 62.668 10.349 61.108V35.4782C9.57777 36.3256 8.06615 36.8879 7.09742 36.6717C6.95407 36.6396 6.69547 36.6368 6.5228 36.6656C6.35045 36.6943 6.12071 36.6258 6.01231 36.5139C5.90422 36.4017 5.67349 36.3056 5.49925 36.3C4.69116 36.2749 2.94334 33.667 3.13177 32.7675C3.18593 32.509 3.20052 32.2345 3.16442 32.1577C3.12832 32.081 3.13867 31.8244 3.18748 31.5878C3.35722 30.7668 2.63852 29.7967 0.95406 28.5721C0.609696 28.3219 0.309619 28.1801 -0.000976562 28.1354ZM119.549 42.568C119.549 47.488 118.439 51.838 116.219 55.618C114.059 59.338 111.119 62.248 107.399 64.348C103.739 66.448 99.6293 67.498 95.0693 67.498C90.5093 67.498 86.3693 66.448 82.6493 64.348C78.9893 62.248 76.0493 59.338 73.8293 55.618C71.6693 51.838 70.5893 47.488 70.5893 42.568C70.5893 37.648 71.6693 33.328 73.8293 29.608C76.0493 25.828 78.9893 22.888 82.6493 20.788C86.3693 18.628 90.5093 17.548 95.0693 17.548C99.6293 17.548 103.739 18.628 107.399 20.788C111.119 22.888 114.059 25.828 116.219 29.608C118.439 33.328 119.549 37.648 119.549 42.568ZM108.749 42.568C108.749 39.508 108.119 36.868 106.859 34.648C105.659 32.368 104.009 30.598 101.909 29.338C99.8693 28.078 97.5893 27.448 95.0693 27.448C92.5493 27.448 90.2393 28.078 88.1393 29.338C86.0993 30.598 84.4493 32.368 83.1893 34.648C81.9893 36.868 81.3893 39.508 81.3893 42.568C81.3893 45.568 81.9893 48.208 83.1893 50.488C84.4493 52.708 86.0993 54.448 88.1393 55.708C90.2393 56.968 92.5493 57.598 95.0693 57.598C97.5893 57.598 99.8693 56.968 101.909 55.708C104.009 54.448 105.659 52.708 106.859 50.488C108.119 48.208 108.749 45.568 108.749 42.568ZM175.06 67.498C169.96 67.498 165.52 66.448 161.74 64.348C158.02 62.188 155.14 59.278 153.1 55.618C151.12 51.958 150.13 47.818 150.13 43.198C150.13 37.798 151.21 33.208 153.37 29.428C155.59 25.588 158.47 22.648 162.01 20.608C165.55 18.568 169.3 17.548 173.26 17.548C176.32 17.548 179.2 18.178 181.9 19.438C184.66 20.698 187.09 22.438 189.19 24.658C191.29 26.818 192.94 29.338 194.14 32.218C195.4 35.098 196.03 38.158 196.03 41.398C195.97 42.838 195.4 44.008 194.32 44.908C193.24 45.808 191.98 46.258 190.54 46.258H160.82C161.14 47.9227 161.687 49.4227 162.46 50.758C163.84 52.978 165.58 54.688 167.68 55.888C169.84 57.028 172.12 57.598 174.52 57.598C176.74 57.598 178.51 57.418 179.83 57.058C181.15 56.698 182.2 56.278 182.98 55.798C183.82 55.258 184.57 54.808 185.23 54.448C186.31 53.908 187.33 53.638 188.29 53.638C189.61 53.638 190.69 54.088 191.53 54.988C192.43 55.8881 192.88 56.938 192.88 58.138C192.88 59.758 192.04 61.228 190.36 62.548C188.8 63.868 186.61 65.038 183.79 66.058C180.97 67.018 178.06 67.498 175.06 67.498ZM161.47 35.188C161.252 35.8224 161.07 36.5124 160.924 37.258H184.51V36.628C184.39 34.888 183.76 33.328 182.62 31.948C181.54 30.568 180.16 29.488 178.48 28.708C176.86 27.868 175.12 27.448 173.26 27.448C171.46 27.448 169.78 27.688 168.22 28.168C166.66 28.648 165.31 29.458 164.17 30.598C163.03 31.738 162.13 33.268 161.47 35.188ZM235.796 18.628C233.276 17.908 230.306 17.548 226.886 17.548C222.266 17.548 218.156 18.628 214.556 20.788C211.016 22.888 208.226 25.828 206.186 29.608C204.206 33.328 203.216 37.648 203.216 42.568C203.216 47.248 204.146 51.4781 206.006 55.258C207.926 59.038 210.626 62.038 214.106 64.258C217.586 66.4181 221.696 67.498 226.436 67.498C229.616 67.498 232.556 67.138 235.256 66.418C238.016 65.638 240.236 64.648 241.916 63.448C243.596 62.188 244.436 60.808 244.436 59.308C244.436 57.868 244.016 56.668 243.176 55.708C242.336 54.688 241.136 54.178 239.576 54.178C238.256 54.178 237.266 54.448 236.606 54.988C235.946 55.528 235.196 56.038 234.356 56.518C233.636 56.878 232.736 57.148 231.656 57.328C230.576 57.508 229.286 57.598 227.786 57.598C225.086 57.598 222.686 56.938 220.586 55.618C218.546 54.298 216.926 52.528 215.726 50.308C214.586 48.028 214.016 45.448 214.016 42.568C214.016 39.628 214.586 37.048 215.726 34.828C216.866 32.548 218.486 30.748 220.586 29.428C222.746 28.108 225.356 27.448 228.416 27.448C229.016 27.448 229.916 27.568 231.116 27.808C232.376 27.988 233.306 28.258 233.906 28.618C234.566 28.978 235.136 29.368 235.616 29.788C236.096 30.208 236.636 30.568 237.236 30.868C237.896 31.108 238.706 31.228 239.666 31.228C241.046 31.228 242.096 30.718 242.816 29.698C243.536 28.618 243.896 27.478 243.896 26.278C243.896 24.478 243.176 22.948 241.736 21.688C240.356 20.368 238.376 19.348 235.796 18.628ZM287.954 18.448C289.514 18.448 290.804 18.988 291.824 20.068C292.844 21.088 293.354 22.378 293.354 23.938V46.798C293.354 53.158 291.584 58.198 288.044 61.918C284.504 65.638 279.404 67.498 272.744 67.498C266.084 67.498 260.984 65.638 257.444 61.918C253.964 58.198 252.224 53.158 252.224 46.798V23.938C252.224 22.378 252.734 21.088 253.754 20.068C254.774 18.988 256.064 18.448 257.624 18.448C259.184 18.448 260.474 18.988 261.494 20.068C262.514 21.088 263.024 22.378 263.024 23.938V46.798C263.024 50.458 263.834 53.188 265.454 54.988C267.074 56.7281 269.504 57.598 272.744 57.598C276.044 57.598 278.504 56.7281 280.124 54.988C281.744 53.188 282.554 50.458 282.554 46.798V23.938C282.554 22.378 283.064 21.088 284.084 20.068C285.104 18.988 286.394 18.448 287.954 18.448ZM315.126 65.068C316.206 63.988 316.746 62.668 316.746 61.108V5.48805C316.746 3.92804 316.236 2.63804 315.216 1.61804C314.256 0.538045 312.996 -0.00195312 311.436 -0.00195312C309.876 -0.00195312 308.556 0.538045 307.476 1.61804C306.456 2.63804 305.946 3.92804 305.946 5.48805V61.108C305.946 62.668 306.456 63.988 307.476 65.068C308.496 66.088 309.756 66.598 311.256 66.598C312.816 66.598 314.106 66.088 315.126 65.068ZM368.724 17.548C370.284 17.548 371.574 18.058 372.594 19.078C373.614 20.098 374.124 21.418 374.124 23.038V61.108C374.124 62.668 373.614 63.988 372.594 65.068C371.574 66.088 370.284 66.598 368.724 66.598C367.164 66.598 365.874 66.088 364.854 65.068C363.862 64.0171 363.352 62.739 363.325 61.2335C362.589 62.0317 361.688 62.8299 360.624 63.628C359.184 64.708 357.474 65.638 355.494 66.418C353.574 67.138 351.474 67.498 349.194 67.498C345.054 67.498 341.304 66.448 337.944 64.348C334.584 62.188 331.914 59.248 329.934 55.528C328.014 51.748 327.054 47.428 327.054 42.568C327.054 37.648 328.014 33.328 329.934 29.608C331.914 25.828 334.554 22.888 337.854 20.788C341.154 18.628 344.814 17.548 348.834 17.548C351.414 17.548 353.784 17.938 355.944 18.718C358.104 19.498 359.964 20.488 361.524 21.688C362.19 22.1813 362.79 22.6796 363.324 23.183V23.038C363.324 21.478 363.834 20.188 364.854 19.168C365.874 18.088 367.164 17.548 368.724 17.548ZM350.544 57.598C353.184 57.598 355.494 56.938 357.474 55.618C359.454 54.298 360.984 52.498 362.064 50.218C363.204 47.938 363.774 45.388 363.774 42.568C363.774 39.688 363.204 37.108 362.064 34.828C360.984 32.548 359.454 30.748 357.474 29.428C355.494 28.108 353.184 27.448 350.544 27.448C347.964 27.448 345.684 28.108 343.704 29.428C341.724 30.748 340.164 32.548 339.024 34.828C337.944 37.108 337.404 39.688 337.404 42.568C337.404 45.388 337.944 47.938 339.024 50.218C340.164 52.498 341.724 54.298 343.704 55.618C345.684 56.938 347.964 57.598 350.544 57.598ZM387.348 65.068C388.368 66.088 389.658 66.598 391.218 66.598C392.778 66.598 394.068 66.088 395.088 65.068C396.108 63.988 396.618 62.668 396.618 61.108V39.778C396.618 37.618 396.888 35.758 397.428 34.198C398.028 32.578 398.778 31.228 399.678 30.148C400.638 29.068 401.658 28.288 402.738 27.808C403.878 27.268 404.988 26.998 406.068 26.998C407.268 26.998 408.318 27.208 409.218 27.628C410.178 28.048 411.228 28.258 412.368 28.258C413.568 28.258 414.678 27.838 415.698 26.998C416.718 26.098 417.228 24.658 417.228 22.678C417.228 21.298 416.598 20.098 415.338 19.078C414.138 18.058 412.638 17.548 410.838 17.548C409.338 17.548 407.838 17.728 406.338 18.088C404.838 18.448 403.428 19.018 402.108 19.798C400.788 20.518 399.588 21.448 398.508 22.588C397.788 23.35 397.158 24.2015 396.618 25.1425V23.938C396.618 22.378 396.108 21.088 395.088 20.068C394.068 18.988 392.778 18.448 391.218 18.448C389.658 18.448 388.368 18.988 387.348 20.068C386.328 21.088 385.818 22.378 385.818 23.938V61.108C385.818 62.668 386.328 63.988 387.348 65.068ZM477.966 3.59804C482.286 3.59804 486.126 4.40804 489.486 6.02804C492.846 7.64804 495.666 9.92805 497.946 12.868C500.286 15.748 502.026 19.108 503.166 22.948C504.366 26.728 504.966 30.778 504.966 35.098C504.966 40.918 503.916 46.228 501.816 51.028C499.716 55.768 496.656 59.548 492.636 62.368C488.676 65.188 483.786 66.598 477.966 66.598H456.456C454.896 66.598 453.576 66.088 452.496 65.068C451.476 63.988 450.966 62.668 450.966 61.108V9.08804C450.966 7.52804 451.476 6.23805 452.496 5.21804C453.576 4.13804 454.896 3.59804 456.456 3.59804H477.966ZM477.066 56.248C480.846 56.248 483.936 55.288 486.336 53.368C488.736 51.3881 490.476 48.808 491.556 45.628C492.696 42.3881 493.266 38.878 493.266 35.098C493.266 32.278 492.936 29.608 492.276 27.088C491.676 24.508 490.716 22.258 489.396 20.338C488.076 18.358 486.396 16.798 484.356 15.658C482.316 14.518 479.886 13.948 477.066 13.948H462.216V56.248H477.066ZM554.002 20.068C552.982 18.988 551.692 18.448 550.132 18.448C548.572 18.448 547.282 18.988 546.262 20.068C545.242 21.088 544.732 22.378 544.732 23.938V46.978C544.732 49.258 544.342 51.208 543.562 52.828C542.782 54.388 541.672 55.588 540.232 56.428C538.792 57.208 537.022 57.598 534.922 57.598C531.862 57.598 529.462 56.8181 527.722 55.258C526.042 53.6381 525.202 50.878 525.202 46.978V23.938C525.202 22.378 524.692 21.088 523.672 20.068C522.652 18.988 521.362 18.448 519.802 18.448C518.242 18.448 516.952 18.988 515.932 20.068C514.912 21.088 514.402 22.378 514.402 23.938V50.218C514.402 53.578 515.062 56.578 516.382 59.218C517.702 61.798 519.532 63.8381 521.872 65.3381C524.272 66.7781 527.062 67.498 530.242 67.498C532.942 67.498 535.342 67.1681 537.442 66.508C539.542 65.848 541.342 64.888 542.842 63.628C543.559 63.0213 544.219 62.3448 544.822 61.5986V62.548C544.822 65.608 544.342 68.008 543.382 69.748C542.482 71.548 541.102 72.808 539.242 73.528C537.442 74.308 535.162 74.6981 532.402 74.6981C530.362 74.6981 528.562 74.368 527.002 73.708C525.442 73.108 524.182 72.6581 523.222 72.358C521.902 71.878 520.642 71.938 519.442 72.538C518.242 73.1981 517.372 74.398 516.832 76.138C516.412 77.458 516.532 78.688 517.192 79.828C517.912 81.028 519.172 82.0181 520.972 82.798C522.352 83.398 524.122 83.848 526.282 84.148C528.442 84.4481 530.482 84.598 532.402 84.598C536.722 84.598 540.622 83.8781 544.102 82.438C547.582 80.998 550.342 78.6281 552.382 75.328C554.482 72.0881 555.532 67.7081 555.532 62.188V23.938C555.532 22.378 555.022 21.088 554.002 20.068ZM592.964 17.548C597.404 17.548 600.764 18.478 603.044 20.338C605.384 22.198 606.974 24.688 607.814 27.808C608.714 30.868 609.164 34.288 609.164 38.068V61.108C609.164 62.668 608.654 63.988 607.634 65.068C606.614 66.088 605.324 66.598 603.764 66.598C602.204 66.598 600.914 66.088 599.894 65.068C598.874 63.988 598.364 62.668 598.364 61.108V38.068C598.364 36.088 598.094 34.318 597.554 32.758C597.074 31.138 596.174 29.848 594.854 28.888C593.534 27.928 591.644 27.448 589.184 27.448C586.784 27.448 584.744 27.928 583.064 28.888C581.444 29.848 580.184 31.138 579.284 32.758C578.444 34.318 578.024 36.088 578.024 38.068V61.108C578.024 62.668 577.514 63.988 576.494 65.068C575.474 66.088 574.184 66.598 572.624 66.598C571.064 66.598 569.774 66.088 568.754 65.068C567.734 63.988 567.224 62.668 567.224 61.108V23.938C567.224 22.378 567.734 21.088 568.754 20.068C569.774 18.988 571.064 18.448 572.624 18.448C574.184 18.448 575.474 18.988 576.494 20.068C577.514 21.088 578.024 22.378 578.024 23.938V25.4822C578.324 25.095 578.654 24.7002 579.014 24.298C580.034 23.098 581.234 21.988 582.614 20.968C583.994 19.948 585.554 19.138 587.294 18.538C589.034 17.878 590.924 17.548 592.964 17.548ZM664.127 19.078C663.107 18.058 661.817 17.548 660.257 17.548C658.697 17.548 657.407 18.088 656.387 19.168C655.367 20.188 654.857 21.478 654.857 23.038V23.183C654.323 22.6796 653.723 22.1813 653.057 21.688C651.497 20.488 649.637 19.498 647.477 18.718C645.317 17.938 642.947 17.548 640.367 17.548C636.347 17.548 632.687 18.628 629.387 20.788C626.087 22.888 623.447 25.828 621.467 29.608C619.547 33.328 618.587 37.648 618.587 42.568C618.587 47.428 619.547 51.748 621.467 55.528C623.447 59.248 626.117 62.188 629.477 64.348C632.837 66.448 636.587 67.498 640.727 67.498C643.007 67.498 645.107 67.138 647.027 66.418C649.007 65.638 650.717 64.708 652.157 63.628C653.221 62.8299 654.122 62.0317 654.858 61.2335C654.885 62.739 655.395 64.0171 656.387 65.068C657.407 66.088 658.697 66.598 660.257 66.598C661.817 66.598 663.107 66.088 664.127 65.068C665.147 63.988 665.657 62.668 665.657 61.108V23.038C665.657 21.418 665.147 20.098 664.127 19.078ZM649.007 55.618C647.027 56.938 644.717 57.598 642.077 57.598C639.497 57.598 637.217 56.938 635.237 55.618C633.257 54.298 631.697 52.498 630.557 50.218C629.477 47.938 628.937 45.388 628.937 42.568C628.937 39.688 629.477 37.108 630.557 34.828C631.697 32.548 633.257 30.748 635.237 29.428C637.217 28.108 639.497 27.448 642.077 27.448C644.717 27.448 647.027 28.108 649.007 29.428C650.987 30.748 652.517 32.548 653.597 34.828C654.737 37.108 655.307 39.688 655.307 42.568C655.307 45.388 654.737 47.938 653.597 50.218C652.517 52.498 650.987 54.298 649.007 55.618ZM702.641 17.548C707.441 17.548 710.981 18.718 713.261 21.058C714.99 22.7873 716.271 24.9134 717.103 27.4364C717.823 26.1385 718.883 24.7624 720.281 23.308C721.781 21.688 723.581 20.338 725.681 19.258C727.841 18.118 730.241 17.548 732.881 17.548C737.201 17.548 740.471 18.478 742.691 20.338C744.971 22.198 746.531 24.688 747.371 27.808C748.211 30.868 748.631 34.288 748.631 38.068V61.108C748.631 62.668 748.121 63.988 747.101 65.068C746.081 66.088 744.791 66.598 743.231 66.598C741.671 66.598 740.381 66.088 739.361 65.068C738.341 63.988 737.831 62.668 737.831 61.108V38.068C737.831 36.088 737.591 34.318 737.111 32.758C736.631 31.138 735.761 29.848 734.501 28.888C733.241 27.928 731.441 27.448 729.101 27.448C726.821 27.448 724.871 27.928 723.251 28.888C721.631 29.848 720.401 31.138 719.561 32.758C718.781 34.318 718.391 36.088 718.391 38.068V61.108C718.391 62.668 717.881 63.988 716.861 65.068C715.841 66.088 714.551 66.598 712.991 66.598C711.431 66.598 710.141 66.088 709.121 65.068C708.101 63.988 707.591 62.668 707.591 61.108V38.068C707.591 36.088 707.351 34.318 706.871 32.758C706.391 31.138 705.521 29.848 704.261 28.888C703.001 27.928 701.201 27.448 698.861 27.448C696.581 27.448 694.631 27.928 693.011 28.888C691.391 29.848 690.161 31.138 689.321 32.758C688.541 34.318 688.151 36.088 688.151 38.068V61.108C688.151 62.668 687.641 63.988 686.621 65.068C685.601 66.088 684.311 66.598 682.751 66.598C681.191 66.598 679.901 66.088 678.881 65.068C677.861 63.988 677.351 62.668 677.351 61.108V23.938C677.351 22.378 677.861 21.088 678.881 20.068C679.901 18.988 681.191 18.448 682.751 18.448C684.311 18.448 685.601 18.988 686.621 20.068C687.641 21.088 688.151 22.378 688.151 23.938V25.4314C688.427 25.0604 688.727 24.6827 689.051 24.298C690.011 23.098 691.181 21.988 692.561 20.968C693.941 19.948 695.471 19.138 697.151 18.538C698.831 17.878 700.661 17.548 702.641 17.548ZM768.96 65.068C769.98 63.988 770.49 62.668 770.49 61.108V23.938C770.49 22.378 769.98 21.088 768.96 20.068C767.94 18.988 766.65 18.448 765.09 18.448C763.53 18.448 762.24 18.988 761.22 20.068C760.2 21.088 759.69 22.378 759.69 23.938V61.108C759.69 62.668 760.2 63.988 761.22 65.068C762.24 66.088 763.53 66.598 765.09 66.598C766.65 66.598 767.94 66.088 768.96 65.068ZM760.68 11.608C761.52 12.268 762.96 12.598 765 12.598C767.04 12.598 768.51 12.298 769.41 11.698C770.31 11.038 770.76 9.83804 770.76 8.09804V6.38805C770.76 4.70805 770.34 3.53805 769.5 2.87805C768.66 2.21805 767.19 1.88804 765.09 1.88804C763.17 1.88804 761.73 2.21805 760.77 2.87805C759.87 3.47805 759.42 4.64805 759.42 6.38805V8.09804C759.42 9.77804 759.84 10.948 760.68 11.608ZM803.009 17.548C806.429 17.548 809.399 17.908 811.919 18.628C814.499 19.348 816.479 20.368 817.859 21.688C819.299 22.948 820.019 24.478 820.019 26.278C820.019 27.478 819.659 28.618 818.939 29.698C818.219 30.718 817.169 31.228 815.789 31.228C814.829 31.228 814.019 31.108 813.359 30.868C812.759 30.568 812.219 30.208 811.739 29.788C811.259 29.368 810.689 28.978 810.029 28.618C809.429 28.258 808.499 27.988 807.239 27.808C806.039 27.568 805.139 27.448 804.539 27.448C801.479 27.448 798.869 28.108 796.709 29.428C794.609 30.748 792.989 32.548 791.849 34.828C790.709 37.048 790.139 39.628 790.139 42.568C790.139 45.448 790.709 48.028 791.849 50.308C793.049 52.528 794.669 54.298 796.709 55.618C798.809 56.938 801.209 57.598 803.909 57.598C805.409 57.598 806.699 57.508 807.779 57.328C808.859 57.148 809.759 56.878 810.479 56.518C811.319 56.038 812.069 55.528 812.729 54.988C813.389 54.448 814.379 54.178 815.699 54.178C817.259 54.178 818.459 54.688 819.299 55.708C820.139 56.668 820.559 57.868 820.559 59.308C820.559 60.808 819.719 62.188 818.039 63.448C816.359 64.648 814.139 65.638 811.379 66.418C808.679 67.138 805.739 67.498 802.559 67.498C797.819 67.498 793.709 66.4181 790.229 64.258C786.749 62.038 784.049 59.038 782.129 55.258C780.269 51.4781 779.339 47.248 779.339 42.568C779.339 37.648 780.329 33.328 782.309 29.608C784.349 25.828 787.139 22.888 790.679 20.788C794.279 18.628 798.389 17.548 803.009 17.548ZM824.747 55.888C824.687 57.208 824.957 58.288 825.557 59.128C827.897 62.248 830.837 64.438 834.377 65.6981C837.917 66.898 841.457 67.498 844.997 67.498C847.817 67.498 850.577 66.958 853.277 65.878C855.977 64.738 858.227 63.088 860.027 60.928C861.827 58.768 862.727 56.158 862.727 53.098C862.727 50.458 862.247 48.298 861.287 46.618C860.327 44.878 859.067 43.468 857.507 42.388C855.947 41.308 854.237 40.438 852.377 39.778C850.517 39.118 848.687 38.548 846.887 38.068C845.147 37.588 843.497 37.108 841.937 36.628C840.437 36.088 839.237 35.428 838.337 34.648C837.437 33.808 836.987 32.698 836.987 31.318C836.987 29.818 837.377 28.738 838.157 28.078C838.937 27.358 839.837 26.908 840.857 26.728C841.937 26.488 842.927 26.368 843.827 26.368C846.047 26.368 847.997 26.758 849.677 27.538C851.417 28.318 852.797 29.368 853.817 30.688C854.597 31.408 855.587 31.828 856.787 31.948C857.987 32.008 859.037 31.678 859.937 30.958C861.197 29.938 861.767 28.798 861.647 27.538C861.527 26.278 861.137 25.198 860.477 24.298C859.217 22.678 857.657 21.388 855.797 20.428C853.937 19.408 851.987 18.688 849.947 18.268C847.907 17.788 845.957 17.548 844.097 17.548C841.157 17.548 838.337 18.118 835.637 19.258C832.997 20.398 830.837 22.018 829.157 24.118C827.477 26.218 826.637 28.768 826.637 31.768C826.637 34.408 827.147 36.598 828.167 38.338C829.187 40.078 830.507 41.488 832.127 42.568C833.747 43.588 835.517 44.428 837.437 45.088C839.417 45.748 841.337 46.348 843.197 46.888C844.997 47.368 846.617 47.878 848.057 48.418C849.557 48.958 850.757 49.618 851.657 50.398C852.557 51.178 853.007 52.228 853.007 53.548C853.007 55.108 852.587 56.278 851.747 57.058C850.967 57.778 850.037 58.258 848.957 58.498C847.877 58.678 846.887 58.798 845.987 58.858C843.107 58.858 840.707 58.378 838.787 57.418C836.867 56.458 835.037 55.108 833.297 53.368C832.277 52.348 831.227 51.808 830.147 51.748C829.067 51.628 828.047 51.868 827.087 52.468C825.587 53.428 824.807 54.568 824.747 55.888ZM5.52226 42.274C4.90357 42.8711 2.91402 42.7119 2.22749 42.0101C-0.263563 39.4635 2.91743 35.6581 5.6469 37.9197C7.14743 39.1628 7.10205 40.7499 5.52226 42.274ZM8.39851 23.6209C9.52896 25.9689 6.39797 28.1077 4.40107 26.3517C3.96629 25.9692 3.60906 24.7084 3.77939 24.1581C4.4956 21.847 7.38236 21.5113 8.39851 23.6209Z" fill="#030625"/>
</svg>
