<svg width="43" height="49" viewBox="0 0 43 49" fill="none" xmlns="http://www.w3.org/2000/svg">
<path fill-rule="evenodd" clip-rule="evenodd" d="M42.5645 39.6889C42.1663 38.5561 41.9591 38.2771 41.1472 37.7801C39.5969 36.8316 37.8321 37.6427 37.0816 39.6487L36.7089 40.6438L37.4242 41.751C38.7923 43.8692 41.012 43.7333 42.4036 41.4453C42.6622 41.0201 42.8525 40.5879 42.8264 40.4856C42.8003 40.3833 42.6828 40.0247 42.5645 39.6889ZM40.2551 28.5576C39.6488 27.1977 36.9035 25.9224 35.7089 26.4453C32.6588 27.7798 31.7576 30.0128 33.2361 32.5717C35.9252 37.2268 42.455 33.4923 40.2551 28.5576ZM41.2573 46.2786C40.4986 44.7353 38.7002 45.5578 38.5919 47.4981C38.5376 48.4744 38.987 48.8271 40.1327 48.7062C41.4856 48.5635 41.9193 47.6269 41.2573 46.2786ZM24.9332 7.82465C24.4233 7.08258 22.4722 7.21344 22.0258 8.01997C20.9272 10.0031 23.4566 11.7676 24.8788 10.0106C25.4811 9.26571 25.4968 8.64446 24.9332 7.82465ZM23.1788 25.6649C21.9212 24.5494 19.6677 24.9851 19.0934 26.4553C17.8669 29.5976 21.9184 31.6381 23.618 28.7334C24.211 27.7204 24.0236 26.4144 23.1788 25.6649ZM6.91817 0.620494C5.97061 -0.272276 3.87354 0.00539383 3.43568 1.08283C2.78351 2.68529 3.92101 4.1829 5.65129 4.00039C7.56112 3.79893 8.27366 1.89825 6.91817 0.620494ZM5.03515 15.4608C4.56207 14.243 1.26085 14.4825 0.736137 15.7723C0.242866 16.9849 0.916508 19.0233 1.92142 19.359C4.3169 20.1592 6.02788 18.0176 5.03515 15.4608Z" fill="#030625"/>
</svg>
